<?xml version="1.0" encoding="UTF-8" standalone="no"?>
<!DOCTYPE svg PUBLIC "-//W3C//DTD SVG 1.1//EN" "http://www.w3.org/Graphics/SVG/1.1/DTD/svg11.dtd">
<svg width="100%" height="100%" viewBox="0 0 1080 1080" version="1.1" xmlns="http://www.w3.org/2000/svg" xmlns:xlink="http://www.w3.org/1999/xlink" xml:space="preserve" xmlns:serif="http://www.serif.com/" style="fill-rule:evenodd;clip-rule:evenodd;stroke-linejoin:round;stroke-miterlimit:2;">
    <g transform="matrix(1,0,0,1,-16144,-2931)">
        <g id="Artboard3" transform="matrix(1.36109,0,0,1.78796,-5829.39,-2310.27)">
            <rect x="16144" y="2931.43" width="793.484" height="604.041" style="fill:none;"/>
            <g transform="matrix(8.26365,0,0,6.29072,16185.4,2947.22)">
                <path d="M75.398,29.398L72.301,87.199C72.199,89.301 70.398,91 68.301,91L17.699,91C15.602,91 13.801,89.301 13.699,87.199L10.602,29.398C10.5,27.199 12.199,25.301 14.398,25.199C16.602,25.102 18.5,26.801 18.602,29L21.5,83L64.602,83L67.5,29C67.602,26.801 69.5,25.102 71.699,25.199C73.801,25.301 75.5,27.199 75.398,29.398ZM86,16C86,18.199 84.199,20 82,20L4,20C1.801,20 0,18.199 0,16C0,13.801 1.801,12 4,12L26,12L26,3C26,1.102 27.301,0 29.199,0L56.801,0C58.699,0 60,1.102 60,3L60,12L82,12C84.199,12 86,13.801 86,16ZM33,12L53,12L53,7L33,7L33,12ZM34.699,77C36.699,77 38.199,75.102 38.199,73.199L37.199,30C37.199,28.102 35.602,26.5 33.602,26.5C31.699,26.5 30.102,28.102 30.199,30.102L31.199,73.398C31.199,75.301 32.801,77 34.699,77ZM51.199,77C53.102,77 54.699,75.398 54.699,73.5L55.699,30.301C55.699,28.398 54.199,26.699 52.301,26.699C50.301,26.699 48.801,28.199 48.699,30.102L47.699,73.301C47.602,75.301 49.199,77 51.199,77C51.102,77 51.102,77 51.199,77Z" style="fill:rgb(5,118,68);fill-rule:nonzero;"/>
            </g>
        </g>
    </g>
</svg>
