<?xml version="1.0" encoding="UTF-8" standalone="no"?>
<!DOCTYPE svg PUBLIC "-//W3C//DTD SVG 1.1//EN" "http://www.w3.org/Graphics/SVG/1.1/DTD/svg11.dtd">
<svg width="100%" height="100%" viewBox="0 0 1080 1080" version="1.1" xmlns="http://www.w3.org/2000/svg" xmlns:xlink="http://www.w3.org/1999/xlink" xml:space="preserve" xmlns:serif="http://www.serif.com/" style="fill-rule:evenodd;clip-rule:evenodd;stroke-linejoin:round;stroke-miterlimit:2;">
    <g transform="matrix(1,0,0,1,-17978.7,-3011.68)">
        <g id="Artboard3" transform="matrix(1.36109,0,0,1.78796,-3994.72,-2229.59)">
            <rect x="16144" y="2931.43" width="793.484" height="604.041" style="fill:none;"/>
            <g transform="matrix(0.352519,0,0,0.268356,16178.6,2961.19)">
                <path d="M86.762,379.852C86.379,378.699 86.09,377.547 85.898,376.301L1.117,40.734C-3.203,23.645 7.262,6.266 24.355,1.945C26.945,1.273 29.539,0.984 32.133,0.984L1596.95,0.984C1612.51,0.984 1625.57,12.121 1628.35,26.906L1712.65,360.648C1713.03,361.801 1713.32,362.953 1713.52,364.203L1797.81,697.945C1798.2,699.098 1798.48,700.25 1798.68,701.402L1882.98,1035.14C1883.36,1036.3 1883.65,1037.44 1883.84,1038.69L1968.14,1372.44C1968.53,1373.59 1968.81,1374.74 1969,1375.99L2053.78,1711.56C2058.11,1728.64 2047.64,1746.02 2030.55,1750.34C2027.96,1751.02 2025.37,1751.31 2022.77,1751.31L1646.98,1751.31L1646.98,1964.17L1824.31,1964.17C1841.98,1964.17 1856.29,1978.47 1856.29,1996.14C1856.29,2013.81 1841.98,2028.11 1824.31,2028.11L1405.69,2028.11C1388.03,2028.11 1373.72,2013.81 1373.72,1996.14C1373.72,1978.47 1388.03,1964.17 1405.69,1964.17L1583.03,1964.17L1583.03,1751.31L458.047,1751.31C442.492,1751.31 429.434,1740.17 426.648,1725.38L342.352,1391.73C341.965,1390.58 341.676,1389.43 341.484,1388.18L328.812,1337.87L328.812,1964.17L503.652,1964.17C521.316,1964.17 535.625,1978.47 535.625,1996.14C535.625,2013.81 521.316,2028.11 503.652,2028.11L84.938,2028.11C67.273,2028.11 52.965,2013.81 52.965,1996.14C52.965,1978.47 67.273,1964.17 84.938,1964.17L264.77,1964.17L264.77,1084.59L257.188,1054.54C256.801,1053.39 256.516,1052.23 256.32,1050.98L172.023,717.34C171.637,716.188 171.352,715.035 171.156,713.785L86.859,380.141L86.762,379.852ZM328.812,1076.62L328.812,1076.71L397.844,1349.78L1125.91,1349.78L1056.88,1076.52L328.906,1076.52L328.812,1076.62ZM312.586,1012.58L1040.65,1012.58L971.621,739.324L243.551,739.324L312.586,1012.58ZM1106.52,1012.58L1811.45,1012.58L1742.41,739.324L1037.48,739.324L1106.52,1012.58ZM1827.68,1076.62L1122.75,1076.62L1191.78,1349.88L1896.71,1349.88L1827.68,1076.62ZM142.16,338.184L870.23,338.184L801.195,64.93L73.129,64.93L142.16,338.184ZM867.062,64.93L936.094,338.184L1641.02,338.184L1571.99,64.93L867.062,64.93ZM1657.25,402.129L952.32,402.129L1021.36,675.383L1726.28,675.383L1657.25,402.129ZM1912.93,1413.82L1208,1413.82L1277.04,1687.07L1981.97,1687.07L1912.93,1413.82ZM1211.08,1687.07L1142.04,1413.82L413.977,1413.82L483.008,1687.07L1211.08,1687.07ZM227.422,675.383L955.488,675.383L886.457,402.129L158.387,402.129L227.422,675.383Z" style="fill:rgb(5,118,69);fill-rule:nonzero;"/>
            </g>
        </g>
    </g>
</svg>
