<?xml version="1.0" encoding="UTF-8" standalone="no"?>
<!DOCTYPE svg PUBLIC "-//W3C//DTD SVG 1.1//EN" "http://www.w3.org/Graphics/SVG/1.1/DTD/svg11.dtd">
<svg width="100%" height="100%" viewBox="0 0 1080 1080" version="1.1" xmlns="http://www.w3.org/2000/svg" xmlns:xlink="http://www.w3.org/1999/xlink" xml:space="preserve" xmlns:serif="http://www.serif.com/" style="fill-rule:evenodd;clip-rule:evenodd;stroke-linejoin:round;stroke-miterlimit:2;">
    <g transform="matrix(1,0,0,1,-14889,-1760.29)">
        <g id="Artboard3" transform="matrix(1.36109,0,0,1.78796,-7084.41,-3480.99)">
            <rect x="16144" y="2931.43" width="793.484" height="604.041" style="fill:none;"/>
            <g transform="matrix(25.0916,0,0,19.101,16340,2966.06)">
                <path d="M5,0C4.562,0 4.176,0.285 4.043,0.703L0.043,13.703C-0.047,14.008 0.008,14.34 0.195,14.594C0.383,14.848 0.684,15 1,15L3.922,15L3.004,26.922C2.969,27.375 3.242,27.789 3.668,27.941C4.094,28.09 4.566,27.938 4.824,27.566L15.824,11.566C16.035,11.262 16.059,10.863 15.887,10.535C15.711,10.207 15.371,10 15,10L11.617,10L15.895,1.449C16.051,1.137 16.031,0.77 15.852,0.473C15.668,0.18 15.348,0 15,0L5,0Z" style="fill:none;stroke:white;stroke-width:1.9px;"/>
            </g>
        </g>
    </g>
</svg>
