<?xml version="1.0" encoding="UTF-8" standalone="no"?>
<!DOCTYPE svg PUBLIC "-//W3C//DTD SVG 1.1//EN" "http://www.w3.org/Graphics/SVG/1.1/DTD/svg11.dtd">
<svg width="100%" height="100%" viewBox="0 0 1080 1080" version="1.1" xmlns="http://www.w3.org/2000/svg" xmlns:xlink="http://www.w3.org/1999/xlink" xml:space="preserve" xmlns:serif="http://www.serif.com/" style="fill-rule:evenodd;clip-rule:evenodd;stroke-linejoin:round;stroke-miterlimit:2;">
    <g transform="matrix(1,0,0,1,-16505.2,-1652.25)">
        <g id="Artboard3" transform="matrix(1.36109,0,0,1.78796,-5468.14,-3589.03)">
            <rect x="16144" y="2931.43" width="793.484" height="604.041" style="fill:none;"/>
            <g transform="matrix(24.4162,0,0,18.5869,16173.8,2991.79)">
                <path d="M29,12C28.793,12 28.59,11.934 28.422,11.809L15,2.23L1.578,11.809C1.133,12.074 0.559,11.953 0.258,11.531C-0.043,11.109 0.027,10.527 0.422,10.191L14.422,0.191C14.766,-0.059 15.233,-0.059 15.578,0.191L29.578,10.191C29.93,10.445 30.078,10.895 29.945,11.305C29.812,11.719 29.434,11.996 29,12Z" style="fill:white;fill-rule:nonzero;"/>
                <path d="M24,26L19,26C18.449,26 18,25.551 18,25L18,18L12,18L12,25C12,25.551 11.551,26 11,26L6,26C4.344,26 3,24.656 3,23L3,13C3,12.449 3.449,12 4,12C4.551,12 5,12.449 5,13L5,23C5,23.551 5.449,24 6,24L10,24L10,17C10,16.449 10.449,16 11,16L19,16C19.551,16 20,16.449 20,17L20,24L24,24C24.551,24 25,23.551 25,23L25,13C25,12.449 25.449,12 26,12C26.551,12 27,12.449 27,13L27,23C27,24.656 25.656,26 24,26Z" style="fill:white;fill-rule:nonzero;"/>
            </g>
        </g>
    </g>
</svg>
